# xmcd
#
# Track frame offsets:
#	150
#	20677
#	51047
#	72607
#	86265
#	114240
#	134807
#	158685
#	177217
#	197767
#	214192
#
# Disc length: 3110 seconds
#
# Revision: 1
# Processed by: cddbd v1.4PL0 Copyright (c) Steve Scherf et al.
# Submitted via: EasyCDDAExtractor 5.1.0
#
DISCID=9a0c240b
DTITLE=David Brinston - Hit And Run
DYEAR=1995
DGENRE=Blues
TTITLE0=Hit And Run
TTITLE1=Old Feeling
TTITLE2=Trouble Maker
TTITLE3=Home Recka
TTITLE4=Last One
TTITLE5=Love Maker
TTITLE6=Take It Easy
TTITLE7=Dirty Lover
TTITLE8=Personal Lover
TTITLE9=Don't Say Goodbye
TTITLE10=Got What You Needed
EXTD=
EXTT0=
EXTT1=
EXTT2=
EXTT3=
EXTT4=
EXTT5=
EXTT6=
EXTT7=
EXTT8=
EXTT9=
EXTT10=
PLAYORDER=
